<?xml version="1.0" encoding="utf-8"?><svg xmlns="http://www.w3.org/2000/svg" xmlns:xlink="http://www.w3.org/1999/xlink"><symbol viewBox="0 0 24 24" fill="none" id="cloud" xmlns="http://www.w3.org/2000/svg"><path d="M14.381 9.027a5.765 5.765 0 0 1 1.905-.321c.654 0 1.283.109 1.87.309m-11.04 2.594a4.351 4.351 0 0 0-.83-.08C3.919 11.53 2 13.426 2 15.765 2 18.104 3.919 20 6.286 20h10C19.442 20 22 17.472 22 14.353c0-2.472-1.607-4.573-3.845-5.338M7.116 11.609a5.577 5.577 0 0 1-.354-1.962C6.762 6.528 9.32 4 12.476 4c2.94 0 5.361 2.194 5.68 5.015m-11.04 2.594a4.29 4.29 0 0 1 1.55.634" stroke="currentColor" stroke-width="1.5" stroke-linecap="round"/></symbol><symbol viewBox="0 0 24 24" fill="none" id="cloud" xmlns="http://www.w3.org/2000/svg"><path d="M14.381 9.027a5.765 5.765 0 0 1 1.905-.321c.654 0 1.283.109 1.87.309m-11.04 2.594a4.351 4.351 0 0 0-.83-.08C3.919 11.53 2 13.426 2 15.765 2 18.104 3.919 20 6.286 20h10C19.442 20 22 17.472 22 14.353c0-2.472-1.607-4.573-3.845-5.338M7.116 11.609a5.577 5.577 0 0 1-.354-1.962C6.762 6.528 9.32 4 12.476 4c2.94 0 5.361 2.194 5.68 5.015m-11.04 2.594a4.29 4.29 0 0 1 1.55.634" stroke="currentColor" stroke-width="1.5" stroke-linecap="round"/></symbol><symbol viewBox="0 0 24 24" fill="none" id="connection" xmlns="http://www.w3.org/2000/svg"><path d="M7 12H6c-1.886 0-2.828 0-3.414.586C2 13.172 2 14.114 2 16v2c0 1.886 0 2.828.586 3.414C3.172 22 4.114 22 6 22h2c1.886 0 2.828 0 3.414-.586C12 20.828 12 19.886 12 18v-1" stroke="currentColor" stroke-width="1.5"/><path d="M12 7h-1c-1.886 0-2.828 0-3.414.586C7 8.172 7 9.114 7 11v2c0 1.886 0 2.828.586 3.414C8.172 17 9.114 17 11 17h2c1.886 0 2.828 0 3.414-.586C17 15.828 17 14.886 17 13v-1" stroke="currentColor" stroke-width="1.5"/><path d="M12 6c0-1.886 0-2.828.586-3.414C13.172 2 14.114 2 16 2h2c1.886 0 2.828 0 3.414.586C22 3.172 22 4.114 22 6v2c0 1.886 0 2.828-.586 3.414C20.828 12 19.886 12 18 12h-2c-1.886 0-2.828 0-3.414-.586C12 10.828 12 9.886 12 8V6Z" stroke="currentColor" stroke-width="1.5"/></symbol><symbol viewBox="0 0 24 24" fill="none" id="connection" xmlns="http://www.w3.org/2000/svg"><path d="M7 12H6c-1.886 0-2.828 0-3.414.586C2 13.172 2 14.114 2 16v2c0 1.886 0 2.828.586 3.414C3.172 22 4.114 22 6 22h2c1.886 0 2.828 0 3.414-.586C12 20.828 12 19.886 12 18v-1" stroke="currentColor" stroke-width="1.5"/><path d="M12 7h-1c-1.886 0-2.828 0-3.414.586C7 8.172 7 9.114 7 11v2c0 1.886 0 2.828.586 3.414C8.172 17 9.114 17 11 17h2c1.886 0 2.828 0 3.414-.586C17 15.828 17 14.886 17 13v-1" stroke="currentColor" stroke-width="1.5"/><path d="M12 6c0-1.886 0-2.828.586-3.414C13.172 2 14.114 2 16 2h2c1.886 0 2.828 0 3.414.586C22 3.172 22 4.114 22 6v2c0 1.886 0 2.828-.586 3.414C20.828 12 19.886 12 18 12h-2c-1.886 0-2.828 0-3.414-.586C12 10.828 12 9.886 12 8V6Z" stroke="currentColor" stroke-width="1.5"/></symbol><symbol viewBox="0 0 24 24" fill="none" id="creativity" xmlns="http://www.w3.org/2000/svg"><path d="M10.577 8.704C11.21 7.568 11.527 7 12 7c.473 0 .79.568 1.423 1.704l.164.294c.18.323.27.484.41.59.14.107.316.147.665.226l.318.072c1.23.278 1.845.417 1.991.888.147.47-.273.96-1.111 1.941l-.217.254c-.238.278-.357.418-.41.59-.055.172-.037.358 0 .73l.032.338c.127 1.308.19 1.962-.193 2.253-.383.29-.958.026-2.11-.504l-.298-.138c-.327-.15-.49-.226-.664-.226-.173 0-.337.076-.664.226l-.298.138c-1.152.53-1.727.795-2.11.504-.383-.29-.32-.945-.193-2.253l.032-.338c.037-.372.055-.558 0-.73-.053-.172-.172-.312-.41-.59l-.217-.254c-.838-.98-1.258-1.47-1.111-1.941.146-.47.76-.61 1.99-.888l.319-.072c.35-.08.524-.119.665-.225.14-.107.23-.268.41-.59l.164-.295Z" stroke="currentColor" stroke-width="1.5"/><path d="M12 2v2M12 20v2M2 12h2M20 12h2M6 18l.343-.343M17.657 6.343 18 6M18 18l-.343-.343M6.343 6.343 6 6" stroke="currentColor" stroke-width="1.5" stroke-linecap="round"/></symbol><symbol viewBox="0 0 24 24" fill="none" id="creativity" xmlns="http://www.w3.org/2000/svg"><path d="M10.577 8.704C11.21 7.568 11.527 7 12 7c.473 0 .79.568 1.423 1.704l.164.294c.18.323.27.484.41.59.14.107.316.147.665.226l.318.072c1.23.278 1.845.417 1.991.888.147.47-.273.96-1.111 1.941l-.217.254c-.238.278-.357.418-.41.59-.055.172-.037.358 0 .73l.032.338c.127 1.308.19 1.962-.193 2.253-.383.29-.958.026-2.11-.504l-.298-.138c-.327-.15-.49-.226-.664-.226-.173 0-.337.076-.664.226l-.298.138c-1.152.53-1.727.795-2.11.504-.383-.29-.32-.945-.193-2.253l.032-.338c.037-.372.055-.558 0-.73-.053-.172-.172-.312-.41-.59l-.217-.254c-.838-.98-1.258-1.47-1.111-1.941.146-.47.76-.61 1.99-.888l.319-.072c.35-.08.524-.119.665-.225.14-.107.23-.268.41-.59l.164-.295Z" stroke="currentColor" stroke-width="1.5"/><path d="M12 2v2M12 20v2M2 12h2M20 12h2M6 18l.343-.343M17.657 6.343 18 6M18 18l-.343-.343M6.343 6.343 6 6" stroke="currentColor" stroke-width="1.5" stroke-linecap="round"/></symbol><symbol viewBox="0 0 24 24" fill="none" id="customize" xmlns="http://www.w3.org/2000/svg"><path d="M2 12.026c0 5.146 3.867 9.387 8.847 9.96.735.085 1.447-.228 1.97-.753a1.68 1.68 0 0 0 0-2.372c-.523-.525-.95-1.307-.555-1.934 1.576-2.508 9.738 3.251 9.738-4.9C22 6.488 17.523 2 12 2S2 6.489 2 12.026Z" stroke="currentColor" stroke-width="1.5"/><circle cx="17.5" cy="11.5" r=".75" stroke="currentColor" stroke-width="1.5"/><circle cx="6.5" cy="11.5" r=".75" stroke="currentColor" stroke-width="1.5"/><path d="M10.335 7a.75.75 0 1 1-1.5 0 .75.75 0 0 1 1.5 0ZM15.25 7a.75.75 0 1 1-1.5 0 .75.75 0 0 1 1.5 0Z" stroke="currentColor" stroke-width="1.5"/></symbol><symbol viewBox="0 0 24 24" fill="none" id="customize" xmlns="http://www.w3.org/2000/svg"><path d="M2 12.026c0 5.146 3.867 9.387 8.847 9.96.735.085 1.447-.228 1.97-.753a1.68 1.68 0 0 0 0-2.372c-.523-.525-.95-1.307-.555-1.934 1.576-2.508 9.738 3.251 9.738-4.9C22 6.488 17.523 2 12 2S2 6.489 2 12.026Z" stroke="currentColor" stroke-width="1.5"/><circle cx="17.5" cy="11.5" r=".75" stroke="currentColor" stroke-width="1.5"/><circle cx="6.5" cy="11.5" r=".75" stroke="currentColor" stroke-width="1.5"/><path d="M10.335 7a.75.75 0 1 1-1.5 0 .75.75 0 0 1 1.5 0ZM15.25 7a.75.75 0 1 1-1.5 0 .75.75 0 0 1 1.5 0Z" stroke="currentColor" stroke-width="1.5"/></symbol><symbol viewBox="0 0 24 24" fill="none" id="security" xmlns="http://www.w3.org/2000/svg"><path d="M17.26 11.44c2.618 0 4.74-2.113 4.74-4.72C22 4.113 19.878 2 17.26 2c-2.617 0-4.739 2.113-4.739 4.72 0 1.208.551 2.086.551 2.086l-5.731 5.708c-.257.256-.617.922 0 1.537l.661.658c.257.22.904.527 1.433 0l.771-.768c.772.768 1.654.329 1.984-.11.552-.768-.11-1.537-.11-1.537l.22-.22c1.059 1.054 1.985.44 2.315 0 .551-.768 0-1.536 0-1.536-.22-.44-.661-.44-.11-.988l.661-.659c.53.44 1.617.55 2.095.55Z" stroke="currentColor" stroke-width="1.5" stroke-linejoin="round"/><path d="M22 14.993c-.064 2.794-.33 4.426-1.446 5.541C19.088 22 16.73 22 12.01 22s-7.078 0-8.544-1.466C2 19.068 2 16.71 2 11.99s0-7.078 1.466-8.544C4.58 2.33 6.213 2.064 9.007 2" stroke="currentColor" stroke-width="1.5" stroke-linecap="round"/></symbol><symbol viewBox="0 0 24 24" fill="none" id="security" xmlns="http://www.w3.org/2000/svg"><path d="M17.26 11.44c2.618 0 4.74-2.113 4.74-4.72C22 4.113 19.878 2 17.26 2c-2.617 0-4.739 2.113-4.739 4.72 0 1.208.551 2.086.551 2.086l-5.731 5.708c-.257.256-.617.922 0 1.537l.661.658c.257.22.904.527 1.433 0l.771-.768c.772.768 1.654.329 1.984-.11.552-.768-.11-1.537-.11-1.537l.22-.22c1.059 1.054 1.985.44 2.315 0 .551-.768 0-1.536 0-1.536-.22-.44-.661-.44-.11-.988l.661-.659c.53.44 1.617.55 2.095.55Z" stroke="currentColor" stroke-width="1.5" stroke-linejoin="round"/><path d="M22 14.993c-.064 2.794-.33 4.426-1.446 5.541C19.088 22 16.73 22 12.01 22s-7.078 0-8.544-1.466C2 19.068 2 16.71 2 11.99s0-7.078 1.466-8.544C4.58 2.33 6.213 2.064 9.007 2" stroke="currentColor" stroke-width="1.5" stroke-linecap="round"/></symbol><symbol viewBox="0 0 24 24" fill="none" id="support" xmlns="http://www.w3.org/2000/svg"><path d="m10.15 8.802-.442.606.442-.606ZM12 3.106l-.508.552a.75.75 0 0 0 1.015 0L12 3.106Zm1.85 5.696.442.606-.442-.606ZM12 9.676v.75-.75Zm-1.409-1.48c-.69-.503-1.426-1.115-1.982-1.76-.574-.665-.859-1.254-.859-1.721h-1.5c0 1.017.578 1.954 1.223 2.701.663.768 1.501 1.457 2.235 1.992l.883-1.212ZM7.75 4.715c0-1.059.52-1.663 1.146-1.873.652-.22 1.624-.078 2.596.816l1.015-1.104C11.23 1.38 9.704.988 8.418 1.42 7.105 1.862 6.25 3.096 6.25 4.715h1.5Zm6.542 4.693c.734-.534 1.572-1.224 2.235-1.992.645-.747 1.223-1.684 1.223-2.701h-1.5c0 .467-.284 1.056-.859 1.721-.556.645-1.292 1.257-1.982 1.76l.883 1.212Zm3.458-4.693c0-1.619-.855-2.853-2.167-3.295-1.286-.432-2.813-.04-4.09 1.134l1.014 1.104c.973-.894 1.946-1.036 2.598-.816.625.21 1.145.814 1.145 1.873h1.5ZM9.708 9.408c.755.55 1.354 1.018 2.292 1.018v-1.5c-.365 0-.565-.115-1.409-.73l-.883 1.212Zm3.7-1.212c-.843.615-1.043.73-1.408.73v1.5c.938 0 1.537-.467 2.292-1.018l-.883-1.212Z" fill="currentColor"/><path d="M5 20.388h2.26c1.01 0 2.033.106 3.016.308 1.74.359 3.573.402 5.33.118.868-.14 1.72-.355 2.492-.727.696-.337 1.549-.81 2.122-1.341.572-.53 1.168-1.397 1.59-2.075.364-.582.188-1.295-.386-1.728a1.887 1.887 0 0 0-2.22 0l-1.807 1.365c-.7.53-1.465 1.017-2.376 1.162-.11.017-.225.033-.345.047m0 0a8.176 8.176 0 0 1-.11.012m.11-.012a.998.998 0 0 0 .427-.24 1.492 1.492 0 0 0 .126-2.134 1.9 1.9 0 0 0-.45-.367c-2.797-1.669-7.15-.398-9.779 1.467m9.676 1.274a.524.524 0 0 1-.11.012m0 0a9.274 9.274 0 0 1-1.814.004" stroke="currentColor" stroke-width="1.5" stroke-linecap="round"/><rect x="2" y="14" width="3" height="8" rx="1.5" stroke="currentColor" stroke-width="1.5"/></symbol><symbol viewBox="0 0 24 24" fill="none" id="support" xmlns="http://www.w3.org/2000/svg"><path d="m10.15 8.802-.442.606.442-.606ZM12 3.106l-.508.552a.75.75 0 0 0 1.015 0L12 3.106Zm1.85 5.696.442.606-.442-.606ZM12 9.676v.75-.75Zm-1.409-1.48c-.69-.503-1.426-1.115-1.982-1.76-.574-.665-.859-1.254-.859-1.721h-1.5c0 1.017.578 1.954 1.223 2.701.663.768 1.501 1.457 2.235 1.992l.883-1.212ZM7.75 4.715c0-1.059.52-1.663 1.146-1.873.652-.22 1.624-.078 2.596.816l1.015-1.104C11.23 1.38 9.704.988 8.418 1.42 7.105 1.862 6.25 3.096 6.25 4.715h1.5Zm6.542 4.693c.734-.534 1.572-1.224 2.235-1.992.645-.747 1.223-1.684 1.223-2.701h-1.5c0 .467-.284 1.056-.859 1.721-.556.645-1.292 1.257-1.982 1.76l.883 1.212Zm3.458-4.693c0-1.619-.855-2.853-2.167-3.295-1.286-.432-2.813-.04-4.09 1.134l1.014 1.104c.973-.894 1.946-1.036 2.598-.816.625.21 1.145.814 1.145 1.873h1.5ZM9.708 9.408c.755.55 1.354 1.018 2.292 1.018v-1.5c-.365 0-.565-.115-1.409-.73l-.883 1.212Zm3.7-1.212c-.843.615-1.043.73-1.408.73v1.5c.938 0 1.537-.467 2.292-1.018l-.883-1.212Z" fill="currentColor"/><path d="M5 20.388h2.26c1.01 0 2.033.106 3.016.308 1.74.359 3.573.402 5.33.118.868-.14 1.72-.355 2.492-.727.696-.337 1.549-.81 2.122-1.341.572-.53 1.168-1.397 1.59-2.075.364-.582.188-1.295-.386-1.728a1.887 1.887 0 0 0-2.22 0l-1.807 1.365c-.7.53-1.465 1.017-2.376 1.162-.11.017-.225.033-.345.047m0 0a8.176 8.176 0 0 1-.11.012m.11-.012a.998.998 0 0 0 .427-.24 1.492 1.492 0 0 0 .126-2.134 1.9 1.9 0 0 0-.45-.367c-2.797-1.669-7.15-.398-9.779 1.467m9.676 1.274a.524.524 0 0 1-.11.012m0 0a9.274 9.274 0 0 1-1.814.004" stroke="currentColor" stroke-width="1.5" stroke-linecap="round"/><rect x="2" y="14" width="3" height="8" rx="1.5" stroke="currentColor" stroke-width="1.5"/></symbol></svg>